<?xml version="1.0" encoding="UTF-8"?>
<!DOCTYPE svg PUBLIC "-//W3C//DTD SVG 1.1//EN" "http://www.w3.org/Graphics/SVG/1.1/DTD/svg11.dtd">
<!-- Creator: CorelDRAW X8 -->
<svg xmlns="http://www.w3.org/2000/svg" xml:space="preserve" width="345px" height="142px" version="1.1" style="shape-rendering:geometricPrecision; text-rendering:geometricPrecision; image-rendering:optimizeQuality; fill-rule:evenodd; clip-rule:evenodd"
viewBox="0 0 16 7"
 xmlns:xlink="http://www.w3.org/1999/xlink">
 <defs>
  <style type="text/css">
   <![CDATA[
    .fil0 {fill:white;fill-rule:nonzero}
   ]]>
  </style>
 </defs>
 <g id="Layer_x0020_1">
  <metadata id="CorelCorpID_0Corel-Layer"/>
  <g id="_635134832">
   <path class="fil0" d="M2 1l1 0 0 3 -1 0 0 -1c0,1 0,1 0,1 0,0 -1,0 -1,0 0,0 0,0 -1,-1 0,0 0,0 0,-1 0,0 0,0 0,-1 1,0 1,0 1,0 0,0 1,0 1,0 0,0 0,0 0,0l0 0zm-1 1c0,0 0,0 0,0 0,0 0,0 0,0 0,1 0,1 0,1 0,0 0,0 0,0 1,0 1,0 1,0 0,0 0,0 0,-1 0,0 0,0 0,0 0,0 0,0 -1,0z"/>
   <polygon class="fil0" points="3,0 4,0 4,2 5,1 6,1 5,2 6,4 5,4 4,2 4,4 3,4 "/>
   <path class="fil0" d="M6 1l1 0 0 0c0,0 0,0 0,0 0,0 0,0 0,0 0,0 0,0 1,0l-1 1c0,0 0,0 0,0 0,0 0,0 0,0 0,0 0,0 0,0l0 1 0 1 -1 0 0 -3z"/>
   <path class="fil0" d="M10 1l0 0 0 3 0 0 0 -1c0,1 0,1 -1,1 0,0 0,0 0,0 0,0 -1,0 -1,-1 0,0 0,0 0,-1 0,0 0,0 0,-1 0,0 1,0 1,0 0,0 0,0 0,0 1,0 1,0 1,0l0 0zm-1 1c0,0 0,0 0,0 -1,0 -1,0 -1,0 0,1 0,1 1,1 0,0 0,0 0,0 0,0 1,0 1,0 0,0 0,0 0,-1 0,0 0,0 0,0 0,0 -1,0 -1,0z"/>
   <path class="fil0" d="M12 0l0 1c0,0 0,0 0,0 0,0 1,0 1,0 0,0 0,0 1,0 0,1 0,1 0,1 0,1 0,1 0,1 -1,1 -1,1 -1,1 -1,0 -1,0 -1,0 0,0 0,0 0,-1l0 1 -1 0 0 -4 1 0zm1 2c-1,0 -1,0 -1,0 0,0 0,0 0,0 0,1 0,1 0,1 0,0 0,0 1,0 0,0 0,0 0,0 0,0 0,0 0,-1 0,0 0,0 0,0 0,0 0,0 0,0z"/>
   <path class="fil0" d="M15 0l1 0 0 0c0,1 0,1 0,1 0,0 0,1 0,1l-1 0c0,-1 0,-1 1,-1 0,0 0,0 0,0l-1 0 0 -1zm-1 0l1 0 0 0c0,1 0,1 0,1 0,0 0,1 -1,1l0 0c0,-1 0,-1 0,-1 0,0 0,0 0,0l0 0 0 -1z"/>
   <path class="fil0" d="M1 5l0 0c0,0 0,0 0,0 1,0 1,0 1,0 0,0 0,0 0,0 0,0 0,0 0,0 0,0 0,1 -1,1 0,0 0,0 0,0l0 0 0 1 0 0 0 -2zm0 0l0 0 0 0c0,0 0,0 0,0 0,0 1,0 1,0 0,0 0,0 0,0 0,0 0,0 0,0 0,0 -1,0 -1,0 0,0 0,0 0,0l0 0z"/>
   <path id="1" class="fil0" d="M2 5l1 0c0,0 0,0 0,0 0,0 1,0 1,0 0,0 0,0 0,0 0,0 0,0 0,0 0,0 0,1 -1,1 0,0 0,0 0,0l1 1 0 0 -1 -1 0 0 0 1 -1 0 0 -2zm1 0l0 0 0 0c0,0 0,0 0,0 0,0 0,0 0,0 1,0 1,0 1,0 0,0 0,0 -1,0 0,0 0,0 0,0 0,0 0,0 0,0l0 0z"/>
   <path id="2" class="fil0" d="M5 4c1,0 1,1 1,1 0,0 0,0 0,1 0,0 0,0 0,0 0,1 0,1 -1,1 0,0 0,0 0,-1 -1,0 -1,0 -1,0 0,-1 0,-1 0,-1 1,0 1,0 1,0 0,-1 0,-1 0,-1zm0 1c0,0 0,0 0,0 0,0 0,0 0,0 0,0 0,0 0,1 0,0 0,0 0,0 0,0 0,0 0,0 1,0 1,0 1,0 0,0 0,0 0,0 0,0 0,0 0,0 0,-1 0,-1 0,-1 0,0 0,0 0,0 0,0 0,0 -1,0z"/>
   <path id="3" class="fil0" d="M8 5l0 0 0 1c0,0 0,0 0,0 0,0 0,1 0,1 0,0 0,0 -1,0 0,0 0,0 0,0 0,0 0,-1 0,-1l0 0c0,0 0,0 0,0 0,0 0,0 0,0 1,0 1,0 1,0 0,0 0,0 0,0 0,0 0,0 0,0l0 -1z"/>
   <polygon id="4" class="fil0" points="9,5 10,5 10,5 9,5 9,5 10,5 10,6 9,6 9,6 10,6 10,7 9,7 "/>
   <path id="5" class="fil0" d="M12 5l0 0c0,0 0,0 0,0 0,0 0,0 -1,0 0,0 0,0 0,0 0,0 0,0 0,0 0,0 0,0 0,1 0,0 0,0 0,0 0,0 0,0 0,0 1,0 1,0 1,0l0 0c0,0 0,0 0,1 0,0 0,0 -1,0 0,0 0,0 0,-1 -1,0 -1,0 -1,0 0,-1 0,-1 1,-1 0,0 0,-1 0,-1 1,0 1,0 1,1 0,0 0,0 0,0z"/>
   <polygon id="6" class="fil0" points="13,5 13,5 14,5 14,5 13,5 13,7 13,7 13,5 "/>
  </g>
 </g>
</svg>
